<svg xmlns="http://www.w3.org/2000/svg" aria-hidden="true" style="position:absolute;width:0;height:0;overflow:hidden">
  <defs>
    <symbol id="icon-check-icon" viewBox="0 0 31 32">
      <path d="M26.045 10.44 12.477 24.008a.64.64 0 0 1-.908 0L4.67 17.109a.64.64 0 0 1 0-.908l.896-.896a.64.64 0 0 1 .908 0l5.542 5.542L24.24 8.623a.654.654 0 0 1 .909 0l.896.909a.64.64 0 0 1 0 .908z"/>
    </symbol>
    <symbol id="icon-facebook" viewBox="0 0 32 32">
      <path d="M29.333 16.405C29.333 8.996 23.364 2.99 16 2.99S2.667 8.996 2.667 16.405c0 6.696 4.876 12.245 11.25 13.252v-9.374h-3.385v-3.878h3.385V13.45c0-3.362 1.991-5.219 5.036-5.219 1.459 0 2.985.262 2.985.262v3.301h-1.681c-1.656 0-2.173 1.034-2.173 2.095v2.516h3.698l-.591 3.878h-3.107v9.374c6.374-1.006 11.25-6.556 11.25-13.252z"/>
    </symbol>
    <symbol id="icon-close-icon" viewBox="0 0 32 32">
      <path d="m21.589 8.459-5.657 5.656-5.656-5.656-1.885 1.885L14.047 16l-5.656 5.656 1.885 1.885 5.656-5.656 5.657 5.656 1.885-1.885L17.818 16l5.656-5.656-1.885-1.885z"/>
    </symbol>
    <symbol id="icon-menu-icon" viewBox="0 0 32 32">
      <path d="M5.333 8h21.333v2.667H5.333V8zm0 6.667h21.333v2.667H5.333v-2.667zm0 6.666h21.333V24H5.333v-2.667z"/>
    </symbol>
    <symbol id="icon-Instagram" viewBox="0 0 32 32">
      <path d="M15.998 6.161c3.206 0 3.585.014 4.846.071 1.172.052 1.804.248 2.226.412.558.216.961.478 1.378.895.422.422.679.82.9 1.378.164.422.361 1.059.412 2.226.056 1.266.071 1.645.071 4.847s-.014 3.585-.071 4.847c-.052 1.172-.248 1.804-.412 2.227a3.702 3.702 0 0 1-.895 1.377c-.422.422-.82.679-1.378.9-.422.164-1.06.361-2.226.412-1.266.056-1.645.071-4.847.071s-3.585-.014-4.847-.071c-1.172-.052-1.804-.248-2.226-.412a3.714 3.714 0 0 1-1.378-.895 3.767 3.767 0 0 1-.9-1.378c-.164-.422-.361-1.06-.412-2.226-.056-1.266-.071-1.645-.071-4.847s.014-3.585.071-4.847c.052-1.172.248-1.804.412-2.226.216-.558.478-.961.895-1.378.422-.422.82-.679 1.378-.9.422-.164 1.059-.361 2.226-.412 1.261-.056 1.641-.071 4.847-.071h.001zm0-2.16c-3.258 0-3.665.014-4.945.071-1.275.056-2.151.262-2.91.558a5.847 5.847 0 0 0-2.127 1.387A5.883 5.883 0 0 0 4.629 8.14c-.295.764-.502 1.636-.558 2.91C4.015 12.335 4 12.742 4 15.999s.014 3.665.071 4.945c.056 1.275.262 2.151.558 2.91a5.86 5.86 0 0 0 1.387 2.127 5.876 5.876 0 0 0 2.123 1.383c.764.295 1.636.502 2.91.558 1.279.056 1.687.071 4.945.071s3.666-.014 4.945-.071c1.275-.056 2.151-.262 2.91-.558.787-.305 1.458-.717 2.123-1.383s1.078-1.336 1.383-2.123c.295-.764.502-1.635.558-2.91.056-1.279.071-1.687.071-4.945s-.014-3.665-.071-4.945c-.056-1.275-.262-2.151-.558-2.91a5.622 5.622 0 0 0-1.373-2.133 5.876 5.876 0 0 0-2.123-1.383c-.764-.295-1.635-.502-2.91-.558-1.284-.061-1.692-.075-4.949-.075L15.999 4z"/>
      <path d="M15.997 9.836a6.164 6.164 0 1 0 6.163 6.163 6.164 6.164 0 0 0-6.163-6.163zm0 10.161a3.998 3.998 0 1 1 0-7.996 3.998 3.998 0 0 1 0 7.996zM23.842 9.592a1.439 1.439 0 1 1-2.877 0 1.439 1.439 0 0 1 2.877 0z"/>
    </symbol>
    <symbol id="icon-linkedIn" viewBox="0 0 32 32">
      <path d="M25.75 4H6.25A2.257 2.257 0 0 0 4 6.25v19.5A2.257 2.257 0 0 0 6.25 28h19.5A2.257 2.257 0 0 0 28 25.75V6.25A2.257 2.257 0 0 0 25.75 4zM13 23.5h-3V13h3v10.5zm-1.5-12a1.5 1.5 0 1 1-.001-2.999A1.5 1.5 0 0 1 11.5 11.5zm12 12h-3v-6a1.5 1.5 0 1 0-3 0v6h-3V13h3v1.861c.619-.848 1.565-1.861 2.625-1.861 1.866 0 3.375 1.679 3.375 3.75v6.75z"/>
    </symbol>
    <symbol id="icon-twitter" viewBox="0 0 32 32">
      <path d="M22.901 5.657h3.68l-8.04 9.037L28 26.991h-7.406l-5.801-7.458-6.637 7.458H4.474l8.6-9.666L4 5.657h7.594l5.243 6.817 6.064-6.817zM21.61 24.824h2.039L10.486 7.709H8.298L21.61 24.824z"/>
    </symbol>
    <symbol id="icon-yoga-logo" viewBox="0 0 112 32">
      <path d="M20.363.48c.498.247 1.057.957 1.433 1.377 3.223 3.6 4.913 8.185 4.614 13.011-.289 4.671-2.596 8.818-6.058 11.883-.656-.448-1.255-1.086-1.78-1.679-2.941-3.326-4.553-8-4.272-12.433.29-4.571 2.626-9.145 6.063-12.159z"/>
      <path d="m34.077 7.017.029.049c.183.373.236.966.283 1.381.242 2.156.042 4.317-.716 6.358-1.894 5.099-6.272 8.853-11.113 11.078-.057-.001-.019.004-.106-.047.296-.484.708-.916 1.05-1.371a19.45 19.45 0 0 0 1.416-2.228c1.483-2.729 2.192-5.729 2.19-8.824-.001-.879-.021-1.757-.275-2.605.454-.504 1.01-.928 1.55-1.337 1.74-1.317 3.493-2.233 5.693-2.453zM6.588 7.038c.261.01.525.044.783.083 1.989.303 3.728 1.361 5.282 2.587.434.342.908.699 1.234 1.148-.826 4.243.269 8.693 2.464 12.363.35.583.729 1.149 1.134 1.696.194.261.424.497.598.77l-.061.08c-3.618-1.547-7.007-4.285-9.187-7.557-2.287-3.433-3.044-7.132-2.246-11.17z"/>
      <path d="M37.618 16.508c.577-.069 1.869-.142 2.353.166.024.073.032.08.034.168.01.338-.211.845-.326 1.161a13.496 13.496 0 0 1-3.815 5.65c-3.395 3.001-7.795 4.078-12.238 3.793-.839-.088-1.705-.146-2.511-.403 3.723-1.145 7.265-3.485 9.831-6.406.631-.718 1.093-1.552 1.707-2.275 1.165-1.371 3.277-1.734 4.966-1.853zM2.05 16.621c1.735-.205 4.089.081 5.518 1.161.85.642 1.362 1.835 2.064 2.647a21.958 21.958 0 0 0 8.039 5.861c.659.282 1.337.576 2.033.748l-1.392.233c-4.054.583-8.254-.141-11.723-2.396-2.362-1.536-4.025-3.643-5.003-6.27-.144-.385-.358-.803-.432-1.205-.043-.234-.005-.389.132-.588.218-.16.501-.158.763-.19zM72.844 13.118c1.351-.011 2.825-.132 4.159.063.859.125 1.73.432 2.253 1.168.384.542.509 1.303.391 1.951-.146.792-.648 1.25-1.284 1.677.153.064.303.134.449.212.562.304.959.831 1.124 1.445.225.84.044 1.704-.374 2.449a2.21 2.21 0 0 1-.329.387c-1.282 1.216-4.093.98-5.75.965-.319-.003-.739.026-.977-.216a.79.79 0 0 1-.089-.339c-.109-1.78-.01-3.626-.01-5.411-.001-1.265-.127-2.911.038-4.133.127-.159.208-.158.4-.217zm4.526 6.258c-.716-.467-1.921-.332-2.751-.331l.003 2.306c.92.007 1.996.149 2.813-.345.192-.283.385-.705.329-1.057-.04-.256-.18-.434-.393-.573zm-.341-4.1c-.683-.411-1.641-.306-2.409-.302v2.213c.824.007 1.806.128 2.526-.337.193-.277.38-.675.307-1.025-.053-.257-.206-.418-.424-.549zM60.246 15.515c.206-.017.413-.006.616.033.618.124.919.579 1.25 1.064.019-.17.032-.353.072-.518a.521.521 0 0 1 .29-.362c.25-.133.786-.141 1.047-.044.191.071.403.237.469.436.194.591.119 6.371.007 7.161a4.16 4.16 0 0 1-.499 1.491c-.423.737-1.145 1.217-1.954 1.436-1.142.308-2.441.21-3.46-.404-.455-.273-.668-.625-.788-1.133.038-.183.084-.362.241-.48.51-.386 1.613.262 2.18.367.488.09 1.014.041 1.419-.266.668-.504.779-1.436.893-2.204-.447.478-.873.863-1.533 1.025a2.693 2.693 0 0 1-2.113-.353c-.81-.537-1.261-1.457-1.427-2.392-.202-1.138-.026-2.499.664-3.452.658-.908 1.563-1.242 2.626-1.405zm.121 1.742c-.532.201-.827.447-1.055.978-.281.652-.289 1.597-.014 2.251.145.345.436.709.802.832.242.081.534.046.783.029.439-.157.688-.341.896-.767.32-.654.33-1.576.086-2.259-.142-.397-.422-.787-.819-.958a1.583 1.583 0 0 0-.678-.105zM104.471 15.576c.523-.069 1.038-.046 1.532.159.682.282 1.036.797 1.306 1.453.138-.347.291-.696.536-.983.387-.456.894-.637 1.482-.659.676-.026 1.369.129 1.865.615.326.32.526.748.635 1.186.29 1.168.128 3.677.132 4.997.001.202.026.84-.132.96-.269.203-1.221.158-1.556.11-.195-.027-.316-.133-.397-.31-.124-.273-.058-.76-.054-1.062.013-.979.254-3.684-.325-4.398a.75.75 0 0 0-.534-.281c-.312-.022-.709.086-.935.308-.803.787-.537 3.583-.53 4.683.002.222.01.465-.018.685-.012.097-.046.21-.135.261-.342.196-1.175.167-1.552.079-.197-.046-.281-.112-.351-.303-.116-.316-.051-.785-.045-1.119.018-.981.25-3.42-.249-4.155a.93.93 0 0 0-.635-.398c-.298-.049-.609-.009-.851.183-.976.77-.709 3.47-.705 4.586.001.268.056.652-.006.903-.025.105-.056.168-.145.227-.314.206-1.165.162-1.54.088a.445.445 0 0 1-.327-.271c-.096-.203-.125-6.071-.089-6.652.01-.162.043-.335.117-.48a.742.742 0 0 1 .451-.372c.464-.15 1.044.016 1.454.244.099.367.028.847.012 1.229.048-.097.097-.195.147-.291.362-.7.703-.985 1.443-1.22zM96.028 15.606c2.161-.045 3.957 1.657 4.029 3.818S98.45 23.4 96.29 23.498a3.945 3.945 0 0 1-3.654-5.818 3.948 3.948 0 0 1 3.393-2.074zm-.266 1.718c-.581.258-.896.554-1.121 1.16-.269.725-.226 1.739.118 2.431.186.373.474.676.875.81.275.092.531.107.813.04.557-.233.89-.53 1.118-1.1.286-.715.283-1.67-.046-2.371-.206-.438-.573-.8-1.043-.939-.23-.068-.479-.053-.715-.031zM52.273 15.618a3.946 3.946 0 1 1 .354 7.885 3.946 3.946 0 0 1-.353-7.885zm.614 1.758c-.252-.086-.511-.085-.772-.052-.582.288-.916.589-1.138 1.225-.251.721-.214 1.75.148 2.427.198.369.497.64.901.763.248.076.529.083.781.022.555-.231.881-.529 1.104-1.099.283-.722.26-1.675-.068-2.38-.192-.414-.52-.756-.957-.906z"/>
      <path d="M87.184 15.661a3.946 3.946 0 0 1 4.296 5.346 3.944 3.944 0 1 1-4.295-5.346zm.322 1.659c-.585.249-.921.531-1.158 1.137-.277.71-.25 1.693.078 2.383.198.416.535.758.981.9.223.071.476.07.706.042.583-.246.923-.522 1.164-1.128.281-.704.276-1.675-.051-2.363-.194-.409-.525-.753-.957-.906-.244-.086-.508-.085-.763-.064zM67.471 15.58a4.146 4.146 0 0 1 1.456.064c.739.171 1.358.601 1.734 1.263.201.355.318.744.374 1.147.086.623.135 4.559-.007 5.1-.119.152-.238.207-.423.246-.316.067-1.008.107-1.263-.129-.223-.206-.177-.637-.18-.914-.37.547-.743.988-1.415 1.156-.752.187-1.449-.033-2.096-.406-.276-.254-.485-.515-.604-.875-.2-.608-.136-1.429.176-1.99.755-1.359 2.536-1.278 3.837-1.661l.081-.025c-.053-.163-.103-.329-.171-.486-.736-1.698-2.573.157-3.461-.31a.739.739 0 0 1-.354-.479c-.061-.258.009-.425.15-.639.477-.727 1.371-.911 2.167-1.063zm1.582 4.538c-.541.149-1.556.312-1.879.803a.61.61 0 0 0-.046.547c.048.124.142.233.225.336.559.038.91-.003 1.337-.392.259-.236.497-.616.484-.982-.003-.091-.029-.183-.049-.271l-.073-.042zM45.399 17.042c.194-.616 1.702-3.562 2.183-3.839.25-.144 1.582-.166 1.85-.043.172.079.19.125.268.285-.137.763-1.823 3.323-2.321 4.158l-.876 1.456c.003.875.157 3.548-.148 4.182a.749.749 0 0 1-.317.159c-.411.096-1.229.067-1.592-.161-.281-.369-.134-3.437-.133-4.116-.448-.716-3.337-5.329-3.261-5.77.095-.137.157-.172.312-.232.487-.014 1.478-.144 1.882.101.523.318 1.96 3.172 2.154 3.82zM81.183 13.119c.511-.013 1.348-.141 1.789.123.124.842.075 1.733.077 2.583l.005 3.933c0 1.027.113 2.263-.019 3.271-.026.201-.15.266-.295.381-.533.018-1.352.149-1.79-.197-.103-.394-.168-9.474-.069-9.832.047-.17.159-.189.303-.262zM20.573 27.313c.705.251 1.415.451 2.155.572 1.275.207 2.755.146 3.9.81.846.49 1.711 1.639 1.95 2.591.044.175.031.189-.058.334-.885.319-1.744.243-2.625-.045-2.121-.694-4.283-2.24-5.322-4.261zM20.175 27.318c.045-.004.088.019.131.032-.002.02-.002.041-.007.061-.109.451-1.855 2.292-2.258 2.611-1.393 1.1-3.462 1.974-5.26 1.759-.048-.01-.115-.023-.159-.044-.097-.045-.158-.081-.184-.185-.068-.281.092-.607.22-.852.412-.787 1.057-1.711 1.865-2.136.996-.523 2.466-.521 3.573-.718.709-.126 1.392-.318 2.079-.528z"/>
    </symbol>
    <symbol id="icon-yoga-logo-white" viewBox="0 0 112 32">
      <path fill="#f8fbfe" d="M20.363.48c.498.247 1.057.957 1.433 1.377 3.223 3.6 4.913 8.185 4.614 13.011-.289 4.671-2.596 8.818-6.058 11.883-.656-.448-1.255-1.086-1.78-1.679-2.941-3.326-4.553-8-4.272-12.433.29-4.571 2.626-9.145 6.063-12.159z" style="fill:var(--color1, #f8fbfe)"/>
      <path fill="#f8fbfe" d="m34.077 7.017.029.049c.183.373.236.966.283 1.381.242 2.156.042 4.317-.716 6.358-1.894 5.099-6.272 8.853-11.113 11.078-.057-.001-.019.004-.106-.047.296-.484.708-.916 1.05-1.371a19.45 19.45 0 0 0 1.416-2.228c1.483-2.729 2.192-5.729 2.19-8.824-.001-.879-.021-1.757-.275-2.605.454-.504 1.01-.928 1.55-1.337 1.74-1.317 3.493-2.233 5.693-2.453zM6.588 7.038c.261.01.525.044.783.083 1.989.303 3.728 1.361 5.282 2.587.434.342.908.699 1.234 1.148-.826 4.243.269 8.693 2.464 12.363.35.583.729 1.149 1.134 1.696.194.261.424.497.598.77l-.061.08c-3.618-1.547-7.007-4.285-9.187-7.557-2.287-3.433-3.044-7.132-2.246-11.17z" style="fill:var(--color1, #f8fbfe)"/>
      <path fill="#f8fbfe" d="M37.618 16.508c.577-.069 1.869-.142 2.353.166.024.073.032.08.034.168.01.338-.211.845-.326 1.161a13.496 13.496 0 0 1-3.815 5.65c-3.395 3.001-7.795 4.078-12.238 3.793-.839-.088-1.705-.146-2.511-.403 3.723-1.145 7.265-3.485 9.831-6.406.631-.718 1.093-1.552 1.707-2.275 1.165-1.371 3.277-1.734 4.966-1.853zM2.05 16.621c1.735-.205 4.089.081 5.518 1.161.85.642 1.362 1.835 2.064 2.647a21.958 21.958 0 0 0 8.039 5.861c.659.282 1.337.576 2.033.748l-1.392.233c-4.054.583-8.254-.141-11.723-2.396-2.362-1.536-4.025-3.643-5.003-6.27-.144-.385-.358-.803-.432-1.205-.043-.234-.005-.389.132-.588.218-.16.501-.158.763-.19zM72.844 13.118c1.351-.011 2.825-.132 4.159.063.859.125 1.73.433 2.253 1.169.384.542.509 1.302.391 1.949-.145.792-.647 1.251-1.283 1.677.152.064.302.136.448.213.562.304.959.83 1.124 1.444.225.84.045 1.706-.374 2.451a2.155 2.155 0 0 1-.328.385c-1.282 1.217-4.094.982-5.751.966-.319-.003-.737.025-.975-.217a.783.783 0 0 1-.09-.337c-.109-1.78-.01-3.626-.01-5.411-.001-1.265-.127-2.912.038-4.134.127-.159.208-.158.4-.217zm4.526 6.259c-.716-.467-1.921-.332-2.751-.331l.004 2.306c.92.007 1.995.147 2.811-.346.192-.283.385-.703.329-1.056-.04-.256-.181-.434-.393-.573zm-.341-4.1c-.683-.411-1.64-.307-2.408-.303v2.214c.823.007 1.805.129 2.525-.336.193-.277.381-.676.307-1.026-.053-.257-.206-.417-.424-.548zM60.246 15.515c.206-.017.413-.006.616.033.618.124.919.579 1.25 1.064.019-.17.032-.353.072-.518a.521.521 0 0 1 .29-.362c.25-.133.786-.141 1.047-.044.191.071.403.237.469.436.194.591.119 6.371.007 7.161a4.16 4.16 0 0 1-.499 1.491c-.423.737-1.145 1.217-1.954 1.436-1.142.308-2.441.21-3.46-.404-.455-.273-.668-.625-.788-1.133.038-.183.084-.362.241-.48.51-.386 1.613.262 2.18.367.488.09 1.014.041 1.419-.266.668-.504.779-1.436.893-2.204-.447.478-.873.863-1.533 1.025a2.693 2.693 0 0 1-2.113-.353c-.81-.537-1.261-1.457-1.427-2.392-.202-1.138-.026-2.499.664-3.452.658-.908 1.563-1.242 2.626-1.405zm.121 1.742c-.532.201-.827.447-1.055.978-.281.652-.289 1.597-.014 2.251.145.345.436.709.802.832.242.081.534.046.783.029.439-.157.688-.341.896-.767.32-.654.33-1.576.086-2.259-.142-.397-.422-.787-.819-.958a1.583 1.583 0 0 0-.678-.105zM104.471 15.576c.523-.069 1.038-.046 1.532.159.682.282 1.036.797 1.306 1.453.138-.347.291-.696.536-.983.387-.456.894-.637 1.482-.659.676-.026 1.369.129 1.865.615.326.32.526.748.635 1.186.29 1.168.128 3.677.132 4.997.001.202.026.84-.132.96-.269.203-1.221.158-1.556.11-.195-.027-.316-.133-.397-.31-.124-.273-.058-.76-.054-1.062.013-.979.254-3.684-.325-4.398a.75.75 0 0 0-.534-.281c-.312-.022-.709.086-.935.308-.803.787-.537 3.583-.53 4.683.002.222.01.465-.018.685-.012.097-.046.21-.135.261-.342.196-1.175.167-1.552.079-.197-.046-.281-.112-.351-.303-.116-.316-.051-.785-.045-1.119.018-.981.25-3.42-.249-4.155a.93.93 0 0 0-.635-.398c-.298-.049-.609-.009-.851.183-.976.77-.709 3.47-.705 4.586.001.268.056.652-.006.903-.025.105-.056.168-.145.227-.314.206-1.165.162-1.54.088a.445.445 0 0 1-.327-.271c-.096-.203-.125-6.071-.089-6.652.01-.162.043-.335.117-.48a.742.742 0 0 1 .451-.372c.464-.15 1.044.016 1.454.244.099.367.028.847.012 1.229.048-.097.097-.195.147-.291.362-.7.703-.985 1.443-1.22zM96.029 15.607c2.161-.045 3.956 1.657 4.027 3.818a3.947 3.947 0 1 1-7.42-1.745 3.95 3.95 0 0 1 3.393-2.073zm-.267 1.717c-.58.258-.896.554-1.121 1.16-.269.725-.224 1.739.12 2.431.186.373.473.676.874.81.275.092.533.107.814.04.556-.233.889-.53 1.117-1.1.287-.715.284-1.672-.045-2.372-.206-.438-.572-.798-1.042-.938-.23-.068-.48-.053-.716-.031zM52.274 15.618a3.947 3.947 0 1 1 .355 7.886 3.947 3.947 0 0 1-.355-7.886zm.613 1.758c-.252-.086-.511-.084-.772-.051-.582.288-.916.588-1.138 1.224-.251.721-.214 1.75.148 2.427.198.37.498.64.902.763.248.076.528.084.78.023.555-.23.881-.53 1.104-1.099.283-.722.261-1.676-.066-2.381-.192-.414-.521-.756-.958-.906zM87.183 15.661a3.941 3.941 0 1 1 1.175 7.798 3.943 3.943 0 0 1-1.176-7.799zm.321 1.659c-.585.249-.921.531-1.158 1.137-.277.71-.25 1.692.078 2.382.198.416.535.759.981.901.223.071.476.07.706.042.583-.246.922-.522 1.164-1.128.281-.704.276-1.675-.051-2.363-.194-.408-.523-.753-.956-.906-.244-.086-.509-.085-.764-.064zM67.471 15.58a4.146 4.146 0 0 1 1.456.064c.739.171 1.358.601 1.734 1.263.201.355.318.744.374 1.147.086.623.135 4.559-.007 5.1-.119.152-.238.207-.423.246-.316.067-1.008.107-1.263-.129-.223-.206-.177-.637-.18-.914-.37.547-.743.988-1.415 1.156-.752.187-1.449-.033-2.096-.406-.276-.254-.485-.515-.604-.875-.2-.608-.136-1.429.176-1.99.755-1.359 2.536-1.278 3.837-1.661l.081-.025c-.053-.163-.103-.329-.171-.486-.736-1.698-2.573.157-3.461-.31a.739.739 0 0 1-.354-.479c-.061-.258.009-.425.15-.639.477-.727 1.371-.911 2.167-1.063zm1.582 4.538c-.541.149-1.556.312-1.879.803a.61.61 0 0 0-.046.547c.048.124.142.233.225.336.559.038.91-.003 1.337-.392.259-.236.497-.616.484-.982-.003-.091-.029-.183-.049-.271l-.073-.042zM45.399 17.042c.194-.616 1.702-3.562 2.183-3.839.25-.144 1.582-.166 1.85-.043.172.079.19.125.268.285-.137.763-1.823 3.323-2.321 4.158l-.876 1.456c.003.875.157 3.548-.148 4.182a.749.749 0 0 1-.317.159c-.411.096-1.229.067-1.592-.161-.281-.369-.134-3.437-.133-4.116-.448-.716-3.337-5.329-3.261-5.77.095-.137.157-.172.312-.232.487-.014 1.478-.144 1.882.101.523.318 1.96 3.172 2.154 3.82zM81.183 13.119c.511-.013 1.348-.141 1.789.123.124.842.075 1.733.077 2.583l.005 3.933c0 1.027.113 2.263-.019 3.271-.026.201-.15.266-.295.381-.533.018-1.352.149-1.79-.197-.103-.394-.168-9.474-.069-9.832.047-.17.159-.189.303-.262zM20.573 27.313c.705.251 1.415.451 2.155.572 1.275.207 2.755.146 3.9.81.846.49 1.711 1.639 1.95 2.591.044.175.031.189-.058.334-.885.319-1.744.243-2.625-.045-2.121-.694-4.283-2.24-5.322-4.261zM20.175 27.318c.045-.004.088.019.131.032-.002.02-.002.041-.007.061-.109.451-1.855 2.292-2.258 2.611-1.393 1.1-3.462 1.974-5.26 1.759-.048-.01-.115-.023-.159-.044-.097-.045-.158-.081-.184-.185-.068-.281.092-.607.22-.852.412-.787 1.057-1.711 1.865-2.136.996-.523 2.466-.521 3.573-.718.709-.126 1.392-.318 2.079-.528z" style="fill:var(--color1, #f8fbfe)"/>
    </symbol>
    <symbol id="icon-youtube" viewBox="0 0 32 32">
      <path d="M28.791 9.604a3.345 3.345 0 0 0-2.35-2.354C24.353 6.677 16 6.667 16 6.667s-8.352-.009-10.441.539a3.416 3.416 0 0 0-2.354 2.371c-.551 2.088-.556 6.419-.556 6.419s-.005 4.352.541 6.419a3.341 3.341 0 0 0 2.351 2.353c2.109.573 10.44.583 10.44.583s8.353.009 10.441-.537a3.356 3.356 0 0 0 2.356-2.35c.552-2.087.556-6.416.556-6.416s.027-4.353-.543-6.441zM13.328 20.007l.007-8 6.943 4.007-6.949 3.993z"/>
    </symbol>
  </defs>
</svg>
